<svg xmlns="http://www.w3.org/2000/svg" xmlns:xlink="http://www.w3.org/1999/xlink" width="512" height="512" viewBox="240 240 1020 1020" version="1.0"><defs><filter x="0%" y="0%" width="100%" height="100%" id="c0ab0f9960"><feColorMatrix values="0 0 0 0 1 0 0 0 0 1 0 0 0 0 1 0 0 0 1 0" color-interpolation-filters="sRGB"/></filter><filter x="0%" y="0%" width="100%" height="100%" id="7660d7579b"><feColorMatrix values="0 0 0 0 1 0 0 0 0 1 0 0 0 0 1 0.2126 0.7152 0.0722 0 0" color-interpolation-filters="sRGB"/></filter><clipPath id="476c53b0fe"><path d="M 0 182.058594 L 1500 182.058594 L 1500 1318.308594 L 0 1318.308594 Z M 0 182.058594 " clip-rule="nonzero"/></clipPath></defs><g clip-path="url(#476c53b0fe)"><path fill="#c5e033" d="M 505.746094 322.058594 L 290.71875 446.210938 L 290.71875 694.515625 L 398.234375 756.671875 L 398.234375 508.363281 L 505.746094 446.210938 L 613.257812 508.363281 L 505.746094 570.515625 L 398.234375 632.667969 L 613.257812 756.824219 L 828.289062 632.667969 L 828.289062 384.363281 L 720.773438 322.207031 L 720.773438 570.515625 L 613.257812 632.667969 Z M 505.746094 322.058594 "/><path fill="#ffffff" fill-opacity="0.9" d="M 994.253906 1178.058594 L 1209.28125 1053.90625 L 1209.28125 805.601562 L 1101.765625 743.445312 L 1101.765625 991.753906 L 994.253906 1053.90625 L 886.742188 991.753906 L 994.253906 929.601562 L 1101.765625 867.449219 L 886.742188 743.292969 L 671.710938 867.449219 L 671.710938 1115.753906 L 779.226562 1177.910156 L 779.226562 929.601562 L 886.742188 867.449219 Z M 994.253906 1178.058594 "/></g></svg>